<?xml version="1.0" encoding="utf-8"?>
<!-- Generator: Adobe Illustrator 16.0.0, SVG Export Plug-In . SVG Version: 6.00 Build 0)  -->
<!DOCTYPE svg PUBLIC "-//W3C//DTD SVG 1.1//EN" "http://www.w3.org/Graphics/SVG/1.1/DTD/svg11.dtd">
<svg version="1.1" id="Layer_1" xmlns="http://www.w3.org/2000/svg" xmlns:xlink="http://www.w3.org/1999/xlink" x="0px" y="0px"
	 width="90px" height="90px" viewBox="0 0 90 90" enable-background="new 0 0 90 90" xml:space="preserve">
<path fill-rule="evenodd" clip-rule="evenodd" fill="#FF0000" d="M23.379,89.981h45.81c7.303,0,13.277-5.975,13.277-13.276
	c0-7.303-5.975-13.277-13.277-13.277h-45.81c-7.301,0-13.276,5.974-13.276,13.277C10.103,84.006,16.078,89.981,23.379,89.981"/>
<path fill-rule="evenodd" clip-rule="evenodd" fill="#FFFFFF" d="M54.373,77.664c3.124,0.855,4.164-0.375,6.599-0.875
	c2.945-0.604,5.057,0.161,7.498-0.447c0.116-2.468-3.374-1.812-5.89-1.715c-2.772,0.106-5.442-0.049-8.204-0.058L54.373,77.664z
	 M22.112,81.333c0.8,1.465,2.571,2.411,4.39,1.438c-0.225-1.482-1.122-2.288-3.085-2.809L22.112,81.333z M23.259,70.011
	c1.048,2.911,4.972-0.766,6.6,3.364c-1.599,0.635-7.503,0.331-10.008,0.393c-2.531,0.063-2.186-0.208-2.752,1.682
	c3.18,0.92,9.375,0.065,11.128,0.344c3.049,0.486,2.168,3.993,1.354,4.779c-1.676,1.62-3.628-0.122-4.055-1.851
	c1.919-0.307,1.973,0.619,3.163-0.35c-2.111-2.135-12.564-2.403-12.65,2.654c-0.048,2.851,3.006,3.923,5.339,4.333
	c3.545,0.622,5.374-1.056,8.042-1.549c0,1.895-0.447,2.414,1.487,2.971c1.852,0.534,4.573,0.55,4.827-1.327
	c0.095-0.71-0.932-8.488,0.5-9.724c1.723-0.617,4.625-0.387,6.55-0.428c2.152-0.046,5.262-0.617,5.002,2.175
	c-0.424,4.556-2.71-0.646-6.744-0.728c-1.345-0.027-2.484,0.098-3.704,0.583c-0.09,1.482,0.588,1.084,1.186,4.95
	c0.824,5.329,9.17,4.21,15.966,4.281V82.94c-3.639,0.231-2.882,1.751-5.997,1.671c-2.268-0.06-4.207-1.044-3.605-3.25
	c1.473-0.356,3.286,0.867,5.981-0.208c3.391-1.352,0.991-1.796,5.833-1.303c0.755,2.509,0.501,3.884,2.132,5.35
	c2.92,2.622,8.693,2.53,12.479,1.46c2.388-0.673,4.349-0.629,3.496-3.796c-3.098-1.715-4.432,1.882-8.232,1.322
	c-2.557-0.376-4.871-3.864-1.811-5.326c3.513-1.68,5.88,2.073,8.696,0.805c1.833-0.825,0.393-2.535,1.315-4.078
	c0.792-1.319,1.806-0.142,3.949-1.176c-0.164-3.471-6.439-1.523-13.052-1.472c-5.275,0.041-10.613-0.003-15.858,0.063
	c-2.901,0.035-13.055,0.454-15.011-0.369c-1.708-0.719-3.275-5.43-10.068-3.578C22.282,69.724,24.116,69.362,23.259,70.011z"/>
<path fill-rule="evenodd" clip-rule="evenodd" fill="#FF0000" d="M46.238,3.062V0.456c19.254,0,34.861,15.607,34.861,34.86
	c0,3.046-0.399,6.08-1.188,9.022l-2.513-0.673c0.712-2.664,1.094-5.462,1.094-8.35C78.493,17.502,64.052,3.062,46.238,3.062"/>
<path fill-rule="evenodd" clip-rule="evenodd" fill="#FF0000" d="M46.374,67.568v2.382c-19.252,0-34.86-15.608-34.86-34.861
	c0-3.046,0.399-6.08,1.187-9.022l2.445,0.655c-0.755,2.737-1.16,5.618-1.16,8.594c0,17.813,14.44,32.253,32.253,32.253
	C46.284,67.569,46.328,67.568,46.374,67.568"/>
<path fill-rule="evenodd" clip-rule="evenodd" fill="#FF0000" d="M46.358,60.285v1.847c-14.919,0-27.015-12.096-27.015-27.017
	c0-2.36,0.31-4.711,0.919-6.991l1.895,0.507c-0.585,2.121-0.9,4.354-0.9,6.66c0,13.805,11.191,24.997,24.997,24.997
	C46.289,60.287,46.324,60.285,46.358,60.285"/>
<path fill="none" stroke="#FFFFFF" stroke-width="1.0435" stroke-linecap="round" stroke-linejoin="round" stroke-miterlimit="22.9256" d="
	M51.09,69.137c-0.185,0.077,3.302-0.869,3.302-0.869 M49.868,70.465c-1.744-0.816-2.951-1.667-1.187-2.299
	c1.904-0.683,3.596,0.715,3.596,0.715 M58.212,70.414v-3.73c0,0-2.152-2.325-5.639-1.431 M54.539,70.414v-3.73 M36.33,66.684h24.588
	 M44.156,70.414v-3.73 M37.072,67.912h4.562c0,0-2.375-0.206-2.634,0.894c-0.26,1.099,3.82,1.124,5.081,0.102"/>
<path fill-rule="evenodd" clip-rule="evenodd" fill="#FF0000" d="M22.574,15.366c3.478-0.754,6.885-1.492,10.22-2.214
	c3.266-0.707,6.466-1.4,9.6-2.079c1.069-0.232,2.478,0.309,3.134,1.197c4.106,5.545,8.354,11.283,12.752,17.225
	c4.557,6.154,9.286,12.539,14.189,19.161c0.819,1.104,0.607,2.348-0.479,2.766c-3.194,1.229-6.462,2.488-9.805,3.775
	c-3.424,1.318-6.928,2.668-10.519,4.051c-1.262,0.486-2.957-0.125-3.767-1.361c-4.835-7.378-9.486-14.477-13.953-21.296
	c-4.297-6.559-8.441-12.877-12.43-18.968C20.877,16.645,21.355,15.629,22.574,15.366"/>
<polygon fill-rule="evenodd" clip-rule="evenodd" fill="#FF0000" points="19.437,21.141 21.288,16.383 21.348,16.226 21.431,16.077 
	21.535,15.938 21.659,15.81 21.803,15.692 21.968,15.588 22.152,15.498 22.354,15.424 22.574,15.366 22.898,15.295 23.224,15.225 
	23.55,15.154 23.874,15.084 24.199,15.014 24.521,14.944 24.846,14.874 25.168,14.804 25.491,14.734 25.813,14.665 26.135,14.594 
	26.457,14.524 26.777,14.456 27.098,14.386 27.417,14.316 27.737,14.248 28.056,14.178 28.375,14.109 28.693,14.04 29.012,13.972 
	29.329,13.903 29.646,13.834 29.962,13.766 30.279,13.697 30.595,13.628 30.91,13.56 31.225,13.492 31.539,13.424 31.853,13.356 
	32.167,13.288 32.481,13.22 32.793,13.152 33.1,13.087 33.405,13.02 33.71,12.954 34.016,12.888 34.319,12.822 34.624,12.756 
	34.927,12.69 35.23,12.625 35.533,12.559 35.836,12.494 36.138,12.428 36.44,12.363 36.741,12.298 37.042,12.232 37.343,12.167 
	37.642,12.103 37.943,12.037 38.243,11.973 38.541,11.908 38.839,11.843 39.138,11.778 39.436,11.714 39.733,11.65 40.031,11.585 
	40.327,11.521 40.624,11.457 40.919,11.393 41.215,11.329 41.51,11.265 41.805,11.201 42.099,11.137 42.393,11.074 42.495,11.053 
	42.597,11.039 42.701,11.028 42.808,11.022 42.916,11.02 43.023,11.021 43.132,11.027 43.242,11.038 43.352,11.052 43.461,11.069 
	43.571,11.091 43.681,11.116 43.791,11.145 43.899,11.177 44.007,11.212 44.115,11.252 44.22,11.294 44.325,11.34 44.428,11.388 
	44.529,11.44 44.627,11.495 44.725,11.553 44.819,11.613 44.91,11.677 44.999,11.742 45.085,11.81 45.169,11.881 45.248,11.954 
	45.323,12.03 45.396,12.108 45.464,12.188 45.527,12.271 45.913,12.791 46.299,13.312 46.687,13.835 47.074,14.358 47.462,14.884 
	47.852,15.41 48.243,15.938 48.634,16.465 49.025,16.995 49.419,17.526 49.813,18.058 50.207,18.591 50.604,19.125 50.999,19.66 
	51.396,20.197 51.793,20.734 52.193,21.273 52.592,21.813 52.993,22.354 53.395,22.896 53.797,23.44 54.2,23.984 54.604,24.53 
	55.009,25.077 55.415,25.625 55.821,26.174 56.229,26.725 56.637,27.276 57.047,27.829 57.456,28.383 57.868,28.939 58.279,29.495 
	58.707,30.072 59.136,30.651 59.565,31.231 59.996,31.814 60.428,32.396 60.861,32.981 61.295,33.567 61.729,34.154 62.165,34.742 
	62.602,35.333 63.039,35.923 63.478,36.517 63.917,37.11 64.359,37.705 64.801,38.302 65.244,38.9 65.687,39.5 66.132,40.101 
	66.579,40.703 67.025,41.306 67.472,41.911 67.923,42.517 68.372,43.125 68.823,43.734 69.275,44.344 69.728,44.956 70.183,45.569 
	70.638,46.184 71.094,46.799 71.551,47.417 72.009,48.036 72.468,48.656 72.61,48.864 72.727,49.075 72.821,49.286 72.891,49.494 
	72.939,49.703 72.963,49.906 72.964,50.104 72.943,50.295 72.9,50.479 72.833,50.654 70.984,55.411 71.049,55.237 71.093,55.053 
	71.114,54.862 71.112,54.664 71.088,54.46 71.042,54.252 70.97,54.042 70.877,53.833 70.76,53.622 70.618,53.413 70.158,52.792 
	69.7,52.175 69.243,51.557 68.787,50.941 68.333,50.326 67.878,49.714 67.425,49.102 66.973,48.492 66.522,47.882 66.072,47.274 
	65.623,46.667 65.175,46.063 64.728,45.46 64.282,44.858 63.837,44.257 63.393,43.657 62.95,43.06 62.509,42.462 62.068,41.868 
	61.628,41.273 61.19,40.681 60.751,40.089 60.314,39.5 59.879,38.911 59.444,38.324 59.01,37.738 58.578,37.154 58.146,36.571 
	57.716,35.989 57.286,35.409 56.857,34.829 56.429,34.252 56.017,33.695 55.607,33.14 55.196,32.586 54.787,32.034 54.378,31.482 
	53.971,30.932 53.564,30.383 53.158,29.834 52.754,29.287 52.349,28.742 51.946,28.197 51.544,27.653 51.143,27.111 50.743,26.57 
	50.342,26.03 49.944,25.492 49.546,24.953 49.148,24.417 48.752,23.882 48.356,23.348 47.962,22.815 47.569,22.283 47.176,21.752 
	46.783,21.223 46.393,20.694 46.002,20.167 45.613,19.642 45.223,19.116 44.836,18.592 44.449,18.07 44.062,17.548 43.678,17.028 
	43.613,16.945 43.546,16.865 43.474,16.787 43.397,16.712 43.318,16.639 43.235,16.568 43.15,16.5 43.06,16.433 42.969,16.37 
	42.875,16.31 42.778,16.252 42.678,16.198 42.577,16.146 42.474,16.097 42.37,16.051 42.265,16.009 42.158,15.97 42.049,15.935 
	41.94,15.902 41.832,15.874 41.722,15.848 41.61,15.827 41.501,15.81 41.391,15.795 41.281,15.785 41.173,15.779 41.065,15.776 
	40.957,15.779 40.852,15.785 40.748,15.796 40.645,15.811 40.543,15.831 40.248,15.894 39.955,15.958 39.66,16.022 39.364,16.085 
	39.069,16.15 38.773,16.214 38.478,16.278 38.18,16.342 37.883,16.406 37.586,16.471 37.287,16.536 36.99,16.6 36.69,16.665 
	36.392,16.729 36.092,16.794 35.792,16.859 35.492,16.925 35.191,16.989 34.891,17.055 34.589,17.12 34.287,17.186 33.985,17.251 
	33.683,17.316 33.38,17.383 33.077,17.448 32.772,17.514 32.469,17.58 32.165,17.646 31.859,17.711 31.555,17.777 31.25,17.844 
	30.943,17.909 30.63,17.978 30.317,18.045 30.004,18.113 29.69,18.181 29.375,18.25 29.06,18.318 28.744,18.386 28.428,18.454 
	28.112,18.523 27.796,18.591 27.479,18.66 27.161,18.729 26.844,18.798 26.524,18.867 26.206,18.936 25.886,19.004 25.567,19.074 
	25.247,19.143 24.927,19.212 24.606,19.282 24.284,19.352 23.963,19.421 23.641,19.491 23.318,19.561 22.995,19.631 22.672,19.701 
	22.348,19.771 22.023,19.841 21.699,19.912 21.374,19.982 21.048,20.052 20.723,20.124 20.503,20.181 20.301,20.255 20.118,20.345 
	19.954,20.449 19.809,20.566 19.684,20.695 19.58,20.834 19.498,20.983 "/>
<polygon fill-rule="evenodd" clip-rule="evenodd" fill="#FF0000" points="20.723,20.124 21.048,20.052 21.374,19.982 21.699,19.912 
	22.023,19.841 22.348,19.771 22.672,19.701 22.995,19.631 23.318,19.561 23.641,19.491 23.963,19.421 24.284,19.352 24.606,19.282 
	24.927,19.212 25.247,19.143 25.567,19.074 25.886,19.004 26.206,18.936 26.524,18.867 26.844,18.798 27.161,18.729 27.479,18.66 
	27.796,18.591 28.112,18.523 28.428,18.454 28.744,18.386 29.06,18.318 29.375,18.25 29.69,18.181 30.004,18.113 30.317,18.045 
	30.63,17.978 30.943,17.909 31.25,17.844 31.555,17.777 31.859,17.711 32.165,17.646 32.469,17.58 32.772,17.514 33.077,17.448 
	33.38,17.383 33.683,17.316 33.985,17.251 34.287,17.186 34.589,17.12 34.891,17.055 35.191,16.989 35.492,16.925 35.792,16.859 
	36.092,16.794 36.392,16.729 36.69,16.665 36.99,16.6 37.287,16.536 37.586,16.471 37.883,16.406 38.18,16.342 38.478,16.278 
	38.773,16.214 39.069,16.15 39.364,16.085 39.66,16.022 39.955,15.958 40.248,15.894 40.543,15.831 40.645,15.811 40.748,15.796 
	40.852,15.785 40.957,15.779 41.065,15.776 41.173,15.779 41.281,15.785 41.391,15.795 41.501,15.81 41.61,15.827 41.722,15.848 
	41.832,15.874 41.94,15.902 42.049,15.935 42.158,15.97 42.265,16.009 42.37,16.051 42.474,16.097 42.577,16.146 42.678,16.198 
	42.778,16.252 42.875,16.31 42.969,16.37 43.06,16.433 43.15,16.5 43.235,16.568 43.318,16.639 43.397,16.712 43.474,16.787 
	43.546,16.865 43.613,16.945 43.678,17.028 44.062,17.548 44.449,18.07 44.836,18.592 45.223,19.116 45.613,19.642 46.002,20.167 
	46.393,20.694 46.783,21.223 47.176,21.752 47.569,22.283 47.962,22.815 48.356,23.348 48.752,23.882 49.148,24.417 49.546,24.953 
	49.944,25.492 50.342,26.03 50.743,26.57 51.143,27.111 51.544,27.653 51.946,28.197 52.349,28.742 52.754,29.287 53.158,29.834 
	53.564,30.383 53.971,30.932 54.378,31.482 54.787,32.034 55.196,32.586 55.607,33.14 56.017,33.695 56.429,34.252 56.857,34.829 
	57.286,35.409 57.716,35.989 58.146,36.571 58.578,37.154 59.01,37.738 59.444,38.324 59.879,38.911 60.314,39.5 60.751,40.089 
	61.19,40.681 61.628,41.273 62.068,41.868 62.509,42.462 62.95,43.06 63.393,43.657 63.837,44.257 64.282,44.858 64.728,45.46 
	65.175,46.063 65.623,46.667 66.072,47.274 66.522,47.882 66.973,48.492 67.425,49.102 67.878,49.714 68.333,50.326 68.787,50.941 
	69.243,51.557 69.7,52.175 70.158,52.792 70.618,53.413 70.76,53.622 70.877,53.833 70.97,54.042 71.042,54.252 71.088,54.46 
	71.112,54.664 71.114,54.862 71.093,55.053 71.049,55.237 70.984,55.411 70.896,55.574 70.788,55.725 70.657,55.863 70.505,55.985 
	70.333,56.091 70.138,56.178 69.839,56.294 69.539,56.409 69.239,56.525 68.937,56.642 68.636,56.757 68.334,56.872 68.032,56.99 
	67.73,57.106 67.426,57.223 67.123,57.34 66.819,57.457 66.514,57.574 66.21,57.691 65.904,57.809 65.599,57.926 65.292,58.044 
	64.986,58.163 64.679,58.281 64.372,58.399 64.063,58.518 63.755,58.636 63.446,58.756 63.137,58.874 62.827,58.994 62.518,59.113 
	62.207,59.233 61.896,59.353 61.583,59.473 61.271,59.593 60.96,59.712 60.647,59.833 60.334,59.954 60.012,60.077 59.691,60.201 
	59.369,60.325 59.046,60.449 58.723,60.573 58.4,60.697 58.075,60.824 57.751,60.949 57.426,61.073 57.101,61.199 56.775,61.325 
	56.449,61.45 56.122,61.576 55.794,61.703 55.466,61.83 55.137,61.956 54.809,62.083 54.479,62.209 54.149,62.335 53.82,62.464 
	53.488,62.591 53.157,62.719 52.825,62.846 52.492,62.974 52.16,63.103 51.826,63.23 51.493,63.359 51.158,63.488 50.823,63.618 
	50.488,63.747 50.151,63.875 49.816,64.005 49.697,64.048 49.574,64.083 49.45,64.113 49.325,64.137 49.197,64.155 49.07,64.166 
	48.94,64.17 48.809,64.17 48.678,64.165 48.546,64.152 48.416,64.136 48.283,64.114 48.152,64.086 48.021,64.053 47.892,64.014 
	47.763,63.97 47.637,63.922 47.51,63.868 47.387,63.809 47.265,63.746 47.145,63.678 47.027,63.604 46.913,63.527 46.802,63.446 
	46.694,63.36 46.589,63.27 46.488,63.175 46.392,63.076 46.299,62.974 46.211,62.868 46.127,62.757 46.05,62.644 45.596,61.954 
	45.145,61.264 44.694,60.576 44.245,59.89 43.795,59.207 43.348,58.523 42.902,57.842 42.456,57.163 42.012,56.484 41.57,55.81 
	41.127,55.134 40.687,54.461 40.247,53.79 39.808,53.12 39.371,52.452 38.934,51.787 38.499,51.121 38.064,50.458 37.631,49.796 
	37.199,49.137 36.767,48.478 36.337,47.821 35.908,47.167 35.479,46.514 35.054,45.863 34.628,45.212 34.203,44.563 33.779,43.917 
	33.356,43.272 32.935,42.629 32.515,41.987 32.096,41.346 31.693,40.732 31.292,40.12 30.891,39.508 30.491,38.898 30.093,38.29 
	29.694,37.683 29.298,37.077 28.901,36.472 28.506,35.87 28.112,35.268 27.718,34.668 27.327,34.069 26.935,33.471 26.544,32.876 
	26.154,32.28 25.766,31.687 25.377,31.096 24.99,30.504 24.604,29.916 24.219,29.328 23.835,28.741 23.451,28.156 23.068,27.572 
	22.687,26.99 22.306,26.409 21.925,25.83 21.547,25.251 21.168,24.674 20.792,24.099 20.416,23.524 20.04,22.951 19.667,22.38 
	19.559,22.196 19.478,22.013 19.422,21.831 19.391,21.651 19.382,21.476 19.398,21.306 19.437,21.141 19.498,20.983 19.58,20.834 
	19.684,20.695 19.809,20.566 19.954,20.449 20.118,20.345 20.301,20.255 20.503,20.181 "/>
<path fill-rule="evenodd" clip-rule="evenodd" fill="#FFFFFF" d="M43.636,43.869c1.453-0.495,2.896-0.987,4.325-1.474
	c0.313-0.106,0.669-0.045,0.793,0.134c0.351,0.508,0.701,1.018,1.051,1.527c0.125,0.181-0.027,0.417-0.341,0.527
	c-1.429,0.5-2.872,1.005-4.327,1.514c-0.322,0.112-0.686,0.054-0.81-0.131c-0.352-0.521-0.701-1.042-1.05-1.562
	C43.153,44.219,43.313,43.979,43.636,43.869"/>
<path fill-rule="evenodd" clip-rule="evenodd" fill="#FFFFFF" d="M49.88,41.741c1.397-0.475,2.779-0.946,4.149-1.414
	c0.298-0.101,0.645-0.042,0.769,0.134c0.35,0.496,0.7,0.99,1.052,1.487c0.124,0.177-0.019,0.407-0.316,0.511
	c-1.371,0.48-2.755,0.964-4.15,1.452c-0.309,0.108-0.664,0.05-0.789-0.13c-0.352-0.507-0.703-1.015-1.05-1.521
	C49.419,42.08,49.571,41.847,49.88,41.741"/>
<path fill-rule="evenodd" clip-rule="evenodd" fill="#FFFFFF" d="M55.871,39.701c1.337-0.457,2.665-0.909,3.98-1.356
	c0.29-0.099,0.625-0.038,0.751,0.133c0.349,0.482,0.7,0.964,1.051,1.448c0.125,0.173-0.009,0.395-0.298,0.496
	c-1.314,0.46-2.643,0.924-3.979,1.393c-0.296,0.103-0.643,0.045-0.767-0.131c-0.352-0.494-0.702-0.987-1.053-1.481
	C55.432,40.027,55.575,39.802,55.871,39.701"/>
<path fill-rule="evenodd" clip-rule="evenodd" fill="#FFFFFF" d="M45.439,46.543c1.455-0.511,2.897-1.018,4.326-1.521
	c0.314-0.11,0.671-0.05,0.796,0.131c0.355,0.515,0.711,1.03,1.067,1.546c0.126,0.182-0.027,0.425-0.339,0.538
	c-1.429,0.517-2.872,1.036-4.328,1.562c-0.323,0.118-0.687,0.058-0.813-0.128c-0.355-0.528-0.711-1.057-1.065-1.583
	C44.957,46.903,45.117,46.658,45.439,46.543"/>
<path fill-rule="evenodd" clip-rule="evenodd" fill="#FFFFFF" d="M51.686,44.347c1.396-0.491,2.779-0.977,4.15-1.46
	c0.297-0.105,0.646-0.045,0.771,0.131c0.354,0.501,0.709,1.003,1.065,1.506c0.125,0.178-0.016,0.413-0.314,0.52
	c-1.371,0.496-2.755,0.996-4.15,1.499c-0.309,0.112-0.665,0.053-0.791-0.128c-0.357-0.515-0.712-1.028-1.066-1.542
	C51.227,44.693,51.377,44.455,51.686,44.347"/>
<path fill-rule="evenodd" clip-rule="evenodd" fill="#FFFFFF" d="M57.678,42.24c1.337-0.47,2.665-0.938,3.979-1.4
	c0.29-0.101,0.628-0.042,0.752,0.13c0.355,0.489,0.71,0.979,1.065,1.468c0.126,0.174-0.006,0.402-0.295,0.506
	c-1.315,0.474-2.643,0.955-3.979,1.437c-0.298,0.108-0.644,0.049-0.77-0.128c-0.356-0.502-0.712-1.001-1.067-1.502
	C57.24,42.575,57.381,42.344,57.678,42.24"/>
<path fill-rule="evenodd" clip-rule="evenodd" fill="#FFFFFF" d="M47.267,49.255c1.456-0.529,2.899-1.052,4.329-1.571
	c0.311-0.113,0.671-0.055,0.797,0.127c0.359,0.523,0.718,1.044,1.08,1.568c0.127,0.185-0.023,0.432-0.335,0.548
	c-1.431,0.532-2.875,1.07-4.33,1.613c-0.322,0.12-0.689,0.064-0.815-0.126c-0.361-0.535-0.72-1.07-1.08-1.604
	C46.786,49.621,46.944,49.372,47.267,49.255"/>
<path fill-rule="evenodd" clip-rule="evenodd" fill="#FFFFFF" d="M53.515,46.986c1.397-0.506,2.78-1.009,4.149-1.507
	c0.299-0.108,0.647-0.049,0.773,0.128c0.36,0.508,0.72,1.017,1.081,1.526c0.127,0.181-0.012,0.419-0.312,0.53
	c-1.369,0.511-2.752,1.027-4.15,1.546c-0.308,0.116-0.665,0.06-0.792-0.125c-0.362-0.522-0.722-1.042-1.081-1.561
	C53.057,47.339,53.207,47.098,53.515,46.986"/>
<path fill-rule="evenodd" clip-rule="evenodd" fill="#FFFFFF" d="M59.508,44.811c1.338-0.486,2.663-0.968,3.979-1.444
	c0.288-0.104,0.629-0.047,0.754,0.126c0.36,0.495,0.719,0.991,1.08,1.487c0.126,0.176-0.005,0.407-0.293,0.515
	c-1.313,0.49-2.642,0.985-3.979,1.483c-0.296,0.11-0.645,0.054-0.773-0.126c-0.36-0.507-0.719-1.014-1.079-1.521
	C59.071,45.154,59.209,44.919,59.508,44.811"/>
<path fill-rule="evenodd" clip-rule="evenodd" fill="#FFFFFF" d="M49.118,52c1.457-0.546,2.901-1.086,4.331-1.621
	c0.311-0.117,0.672-0.062,0.801,0.125c0.362,0.528,0.728,1.056,1.093,1.586c0.13,0.188-0.02,0.438-0.333,0.56
	c-1.43,0.549-2.874,1.104-4.33,1.664c-0.322,0.124-0.689,0.07-0.819-0.124c-0.364-0.541-0.729-1.083-1.092-1.623
	C48.639,52.375,48.795,52.122,49.118,52"/>
<path fill-rule="evenodd" clip-rule="evenodd" fill="#FFFFFF" d="M55.368,49.659c1.397-0.523,2.781-1.041,4.15-1.556
	c0.299-0.111,0.647-0.056,0.776,0.126c0.363,0.513,0.728,1.028,1.093,1.544c0.129,0.185-0.01,0.426-0.309,0.542
	c-1.369,0.526-2.751,1.059-4.149,1.595c-0.308,0.118-0.665,0.064-0.795-0.123c-0.366-0.529-0.73-1.055-1.094-1.581
	C54.911,50.02,55.06,49.775,55.368,49.659"/>
<path fill-rule="evenodd" clip-rule="evenodd" fill="#FFFFFF" d="M61.358,47.416c1.338-0.502,2.665-1,3.979-1.492
	c0.29-0.108,0.629-0.052,0.758,0.125c0.363,0.5,0.727,1.002,1.092,1.505c0.13,0.179-0.001,0.412-0.289,0.522
	c-1.314,0.506-2.64,1.017-3.977,1.531c-0.296,0.113-0.646,0.06-0.775-0.124c-0.365-0.514-0.729-1.026-1.092-1.538
	C60.924,47.763,61.062,47.526,61.358,47.416"/>
<path fill-rule="evenodd" clip-rule="evenodd" fill="#FF0000" d="M46.344,53.166v1.321c-10.685,0-19.347-8.661-19.347-19.347
	c0-1.691,0.221-3.374,0.66-5.007l1.355,0.364c-0.418,1.518-0.644,3.117-0.644,4.77c0,9.885,8.015,17.9,17.9,17.9
	C46.294,53.167,46.318,53.166,46.344,53.166"/>
<path fill-rule="evenodd" clip-rule="evenodd" fill="#FFFFFF" d="M41.476,40.038c2.589-0.796,5.146-1.582,7.669-2.358
	c2.492-0.766,4.955-1.523,7.384-2.271c0.927-0.286,1.223-1.164,0.653-1.958c-2.167-3.021-4.307-6.001-6.416-8.944
	c-2.082-2.902-4.135-5.765-6.162-8.592c-0.522-0.729-1.698-1.141-2.616-0.916c-2.405,0.59-4.841,1.187-7.305,1.791
	c-2.493,0.611-5.018,1.231-7.573,1.858c-0.992,0.243-1.386,1.071-0.874,1.841c1.995,2.992,4.014,6.023,6.064,9.099
	c2.079,3.117,4.188,6.278,6.327,9.486C39.188,39.916,40.47,40.348,41.476,40.038"/>
<path fill-rule="evenodd" clip-rule="evenodd" fill="#FF0000" d="M31.827,23.127c0.88-0.225,1.759-0.446,2.629-0.669
	c0.862-0.219,1.721-0.438,2.573-0.654c0.33-0.084,0.757,0.07,0.952,0.344c0.622,0.868,1.25,1.75,1.889,2.647
	c-1.066,0.291-2.153,0.582-3.238,0.876c-1.1,0.298-2.208,0.595-3.328,0.9c-0.602-0.937-1.194-1.858-1.773-2.763
	C31.347,23.522,31.483,23.215,31.827,23.127 M40.098,25.114c0.242,0.34,0.486,0.684,0.732,1.025
	c0.175,0.243,0.139,0.502-0.069,0.641c-0.809-0.688-2.128-0.993-3.265-0.684c-1.138,0.31-1.731,1.162-1.474,2.034
	c-0.267,0.075-0.538,0.149-0.807,0.225c-0.357,0.099-0.813-0.071-1.012-0.382c-0.23-0.358-0.458-0.715-0.688-1.072
	c1.12-0.303,2.231-0.605,3.334-0.904C37.941,25.7,39.026,25.406,40.098,25.114z M40.324,26.928
	c-1.262,0.352-2.538,0.708-3.824,1.069c-0.148-0.681,0.323-1.33,1.218-1.575C38.613,26.177,39.663,26.403,40.324,26.928z
	 M38.199,31.648c0.472-0.139,1.085,0.095,1.374,0.528c0.287,0.433,0.141,0.908-0.336,1.053c-0.475,0.145-1.102-0.097-1.385-0.537
	C37.567,32.253,37.727,31.788,38.199,31.648z M39.841,28.504c0.827-0.234,1.65-0.471,2.47-0.705
	c0.814-0.231,1.622-0.462,2.423-0.691c0.345-0.098,0.813,0.074,1.046,0.384c0.715,0.954,1.443,1.925,2.182,2.913
	c0.245,0.327,0.162,0.687-0.188,0.793c-0.824,0.253-1.654,0.506-2.484,0.759c-0.84,0.257-1.684,0.519-2.533,0.778
	c-0.332,0.101-0.77-0.071-0.979-0.377c-0.734-1.074-1.457-2.13-2.164-3.168C39.419,28.905,39.521,28.596,39.841,28.504z
	 M34.071,21.807c1.236-0.311,2.46-0.619,3.67-0.922c0.164-0.041,0.219-0.185,0.121-0.318c-0.199-0.274-0.394-0.549-0.59-0.819
	c-0.097-0.134-0.31-0.206-0.469-0.166c-1.198,0.295-2.41,0.592-3.635,0.893c-0.168,0.041-0.231,0.188-0.139,0.32
	c0.187,0.279,0.379,0.559,0.568,0.839C33.687,21.773,33.902,21.851,34.071,21.807z M39.04,20.595
	c0.392-0.099,0.781-0.195,1.169-0.293c0.224-0.057,0.292-0.252,0.154-0.435c-0.25-0.333-0.499-0.663-0.747-0.994
	c-0.133-0.178-0.426-0.284-0.649-0.229c-0.381,0.094-0.766,0.19-1.152,0.285c-0.223,0.054-0.302,0.249-0.168,0.429
	c0.245,0.333,0.491,0.668,0.734,1.002C38.518,20.544,38.816,20.652,39.04,20.595z M43.682,20.108
	c-0.807,0.206-1.619,0.411-2.438,0.619c-0.826,0.209-1.651,0.421-2.485,0.635c-0.326,0.083-0.429,0.373-0.233,0.645
	c0.62,0.864,1.253,1.745,1.896,2.638c1.056-0.284,2.108-0.567,3.143-0.848c1.028-0.281,2.05-0.553,3.062-0.827
	c-0.678-0.858-1.346-1.7-2.003-2.531C44.416,20.177,43.995,20.028,43.682,20.108z M40.65,24.961
	c0.247,0.343,0.489,0.684,0.735,1.025c0.212,0.294,0.664,0.461,1,0.367c0.862-0.241,1.718-0.477,2.571-0.715
	c0.839-0.236,1.681-0.469,2.512-0.702c0.322-0.09,0.399-0.396,0.175-0.679c-0.261-0.329-0.518-0.657-0.778-0.982
	c-1.013,0.273-2.034,0.551-3.067,0.83C42.758,24.388,41.709,24.674,40.65,24.961z M49.347,28.348
	c-0.432,0.128-0.532,0.558-0.22,0.966c0.311,0.408,0.924,0.634,1.358,0.502c0.434-0.131,0.523-0.572,0.208-0.974
	S49.779,28.221,49.347,28.348z M30.326,23.169c0.013-0.003,0.029-0.009,0.049-0.013c0.325,0.64,0.842,1.535,1.468,2.567
	c0.629,1.038,1.369,2.218,2.133,3.409c0.789,1.229,1.599,2.475,2.337,3.572c0.745,1.108,1.413,2.07,1.889,2.719
	c-0.058,0.018-0.119,0.036-0.175,0.055c0.19,0.304,0.384,0.608,0.577,0.913c0.106-0.034,0.217-0.069,0.327-0.101
	c0.511-0.162,1.023-0.323,1.535-0.488c0.366,0.562,0.738,1.129,1.112,1.702c0.167,0.255,0.518,0.393,0.781,0.308
	c0.344-0.11,0.683-0.223,1.023-0.334c0.259-0.086,0.334-0.357,0.162-0.613c-0.379-0.562-0.753-1.122-1.128-1.679
	c1.441-0.454,2.861-0.903,4.268-1.345c1.361-0.43,2.734-0.862,4.117-1.3c0.398,0.522,0.801,1.052,1.205,1.581
	c0.184,0.241,0.526,0.369,0.769,0.29c0.312-0.101,0.622-0.202,0.934-0.303c0.243-0.077,0.288-0.333,0.103-0.568
	c-0.412-0.526-0.815-1.049-1.219-1.566c0.458-0.142,0.913-0.287,1.374-0.432c0.091-0.029,0.183-0.059,0.278-0.086
	c-0.22-0.277-0.438-0.548-0.655-0.82c-0.05,0.017-0.102,0.031-0.147,0.044c-0.433-0.615-1.093-1.505-1.868-2.523
	c-0.766-1.009-1.646-2.144-2.525-3.257c-0.857-1.085-1.714-2.151-2.486-3.082c-0.764-0.924-1.445-1.717-1.952-2.268
	c0.011-0.004,0.023-0.006,0.038-0.01c0.051-0.014,0.064-0.061,0.031-0.102c-0.022-0.028-0.041-0.052-0.062-0.078
	c-0.033-0.043-0.106-0.068-0.155-0.055c-0.023,0.006-0.047,0.012-0.069,0.015c-0.25-0.259-0.182-0.261-0.578-0.539
	c-0.397-0.279-1.905-0.632-3.339-0.6c-1.445,0.032-3.089,0.263-4.565,0.62c-1.476,0.357-2.996,0.897-4.122,1.499
	c-1.141,0.611-1.853,1.547-1.799,1.93c0.054,0.382,0.108,0.355,0.252,0.663c-0.025,0.007-0.052,0.013-0.079,0.019
	c-0.059,0.014-0.083,0.066-0.055,0.112c0.019,0.029,0.037,0.057,0.053,0.083C30.191,23.159,30.265,23.183,30.326,23.169z"/>
<path fill-rule="evenodd" clip-rule="evenodd" fill="#FFFFFF" d="M32.156,15.059c0.56-0.126,1.111-0.25,1.653-0.372
	c0.535-0.12,1.061-0.238,1.58-0.355c0.509-0.115,1.013-0.228,1.509-0.339c0.488-0.11,0.971-0.219,1.445-0.326
	c0.251-0.056,0.519-0.048,0.748,0.01c0.113,0.028,0.218,0.069,0.307,0.121c0.087,0.051,0.162,0.112,0.211,0.183
	c0.001,0,0.001,0,0.001,0c0.049,0.071,0.069,0.145,0.067,0.216c-0.002,0.071-0.029,0.142-0.075,0.207
	c-0.095,0.131-0.275,0.242-0.52,0.301c-0.462,0.112-0.934,0.228-1.411,0.343c-0.482,0.118-0.974,0.238-1.471,0.359
	c-0.505,0.123-1.019,0.248-1.54,0.375c-0.528,0.129-1.065,0.26-1.611,0.392c-0.296,0.072-0.617,0.077-0.895,0.023
	c-0.141-0.027-0.271-0.067-0.38-0.121c-0.11-0.054-0.201-0.121-0.264-0.198c0,0,0,0,0-0.001c-0.063-0.077-0.095-0.159-0.093-0.239
	c0-0.081,0.033-0.161,0.093-0.235C31.627,15.254,31.852,15.127,32.156,15.059"/>
<path fill-rule="evenodd" clip-rule="evenodd" fill="#FF0000" d="M46.254,10.294v-2.02c14.921,0,27.017,12.096,27.017,27.016
	c0,2.361-0.31,4.712-0.921,6.993l-1.947-0.521c0.551-2.064,0.848-4.233,0.848-6.471C71.25,21.486,60.059,10.294,46.254,10.294"/>
<path fill-rule="evenodd" clip-rule="evenodd" fill="#FF0000" d="M46.268,17.365v-1.447c10.686,0,19.348,8.662,19.348,19.348
	c0,1.691-0.222,3.374-0.66,5.007l-1.394-0.374c0.395-1.478,0.607-3.031,0.607-4.633C64.169,25.38,56.155,17.365,46.268,17.365"/>
</svg>
